<?xml version="1.0" encoding="utf-8"?>
<!-- Generator: Adobe Illustrator 16.0.0, SVG Export Plug-In . SVG Version: 6.00 Build 0)  -->
<!DOCTYPE svg PUBLIC "-//W3C//DTD SVG 1.1//EN" "http://www.w3.org/Graphics/SVG/1.1/DTD/svg11.dtd" [
	<!ENTITY ns_flows "http://ns.adobe.com/Flows/1.0/">
	<!ENTITY ns_extend "http://ns.adobe.com/Extensibility/1.0/">
	<!ENTITY ns_ai "http://ns.adobe.com/AdobeIllustrator/10.0/">
	<!ENTITY ns_graphs "http://ns.adobe.com/Graphs/1.0/">
]>
<svg version="1.1" id="Layer_1" xmlns:x="&ns_extend;" xmlns:i="&ns_ai;" xmlns:graph="&ns_graphs;"
	 xmlns="http://www.w3.org/2000/svg" xmlns:xlink="http://www.w3.org/1999/xlink" xmlns:a="http://ns.adobe.com/AdobeSVGViewerExtensions/3.0/"
	 x="0px" y="0px" width="200px" height="200px" viewBox="100 0 200 200" enable-background="new 100 0 200 200"
	 xml:space="preserve">
<path fill="#CECECE" d="M228.125,50c-8.594,0-15.625,7.031-15.625,15.625V150H109.375c-5.156,0-9.375-4.219-9.375-9.375V9.375
	C100,4.219,104.219,0,109.375,0h143.75c5.156,0,9.375,4.219,9.375,9.375V50H228.125z"/>
<path fill="#FFFFFF" d="M228.125,50c-8.594,0-15.625,7.031-15.625,15.625V137.5h-93.75c-3.438,0-6.25-2.813-6.25-6.25V46.875
	c0-3.438,2.813-6.25,6.25-6.25h125c3.438,0,6.25,2.813,6.25,6.25V50H228.125z"/>
<path fill="#26A6D1" d="M128.125,56.25H162.5v29.688h-34.375V56.25z"/>
<path fill="#E2574C" d="M212.5,65.625v20.313h-40.625V56.25h43.75C213.75,58.906,212.5,62.188,212.5,65.625z"/>
<path fill="#ADADAD" d="M181.25,14.063h62.5c3.438,0,6.25,2.813,6.25,6.25s-2.813,6.25-6.25,6.25h-62.5
	c-3.438,0-6.25-2.813-6.25-6.25S177.812,14.063,181.25,14.063z"/>
<path fill="#E4E7E7" d="M212.5,106.25h-80.469c-2.188,0-3.906-1.719-3.906-3.906c0-2.188,1.718-3.906,3.906-3.906H212.5V106.25z
	 M132.031,114.063H212.5v7.813h-80.469c-2.188,0-3.906-1.719-3.906-3.906S129.844,114.063,132.031,114.063z"/>
<path fill="#777777" d="M118.75,14.063c-3.438,0-6.25,2.813-6.25,6.25s2.813,6.25,6.25,6.25c3.438,0,6.25-2.813,6.25-6.25
	S122.188,14.063,118.75,14.063z M137.5,14.063c-3.438,0-6.25,2.813-6.25,6.25s2.813,6.25,6.25,6.25s6.25-2.813,6.25-6.25
	S140.938,14.063,137.5,14.063z M156.25,14.063c-3.438,0-6.25,2.813-6.25,6.25s2.813,6.25,6.25,6.25s6.25-2.813,6.25-6.25
	S159.688,14.063,156.25,14.063z"/>
<path fill="#CECECE" d="M234.375,56.25h50c8.594,0,15.625,7.031,15.625,15.625v112.5c0,8.594-7.031,15.625-15.625,15.625h-50
	c-8.594,0-15.625-7.031-15.625-15.625v-112.5C218.75,63.281,225.781,56.25,234.375,56.25z"/>
<path fill="#FFFFFF" d="M229.688,78.125h59.375c1.719,0,3.125,1.406,3.125,3.125V175c0,1.719-1.406,3.125-3.125,3.125h-59.375
	c-1.719,0-3.125-1.406-3.125-3.125V81.25C226.563,79.531,227.969,78.125,229.688,78.125z"/>
<path fill="#777777" d="M259.375,184.375c2.656,0,4.688,2.031,4.688,4.688c0,2.655-2.031,4.687-4.688,4.687
	s-4.688-2.031-4.688-4.687C254.688,186.563,256.719,184.375,259.375,184.375z"/>
<path fill="#26A6D1" d="M239.063,90.625h40.625V112.5h-40.625V90.625z"/>
<path fill="#E2574C" d="M239.063,120.313h40.625v20.313h-40.625V120.313z"/>
<path fill="#E4E7E7" d="M242.188,154.688h34.375c1.719,0,3.125-1.406,3.125-3.125s-1.406-3.125-3.125-3.125h-34.375
	c-1.719,0-3.125,1.406-3.125,3.125S240.469,154.688,242.188,154.688z M276.563,159.375h-34.375c-1.719,0-3.125,1.406-3.125,3.125
	s1.406,3.125,3.125,3.125h34.375c1.719,0,3.125-1.406,3.125-3.125S278.281,159.375,276.563,159.375z"/>
<path fill="#ADADAD" d="M252.344,65.625h15.625c1.25,0,2.344,1.094,2.344,2.344s-1.094,2.344-2.344,2.344h-15.625
	c-1.25,0-2.344-1.094-2.344-2.344S251.094,65.625,252.344,65.625z"/>
</svg>
