<?xml version="1.0" encoding="utf-8"?>
<!-- Generator: Adobe Illustrator 16.0.0, SVG Export Plug-In . SVG Version: 6.00 Build 0)  -->
<!DOCTYPE svg PUBLIC "-//W3C//DTD SVG 1.1//EN" "http://www.w3.org/Graphics/SVG/1.1/DTD/svg11.dtd" [
	<!ENTITY ns_flows "http://ns.adobe.com/Flows/1.0/">
	<!ENTITY ns_extend "http://ns.adobe.com/Extensibility/1.0/">
	<!ENTITY ns_ai "http://ns.adobe.com/AdobeIllustrator/10.0/">
	<!ENTITY ns_graphs "http://ns.adobe.com/Graphs/1.0/">
]>
<svg version="1.1" id="Capa_1" xmlns:x="&ns_extend;" xmlns:i="&ns_ai;" xmlns:graph="&ns_graphs;"
	 xmlns="http://www.w3.org/2000/svg" xmlns:xlink="http://www.w3.org/1999/xlink" xmlns:a="http://ns.adobe.com/AdobeSVGViewerExtensions/3.0/"
	 x="0px" y="0px" width="252.4px" height="50.319px" viewBox="0 0 252.4 50.319" enable-background="new 0 0 252.4 50.319"
	 xml:space="preserve">
<g>
	<g>
		<g>
			<g>
				<defs>
					<path id="SVGID_1_" d="M82.993,1.468c-9.202-3.067-21.652,0.919-32.955,4.368c-0.737,0.199-1.195,0.362-1.195,0.362
						s6.796,7.172,12.364,14.376c5.568,7.205,16.855,12.967,24.475,5.61c0,0-6.412,3.263-13.231-5.501
						c-1.933-2.485-4.61-6.242-7.326-9.4c5.793-1.407,11.201-2.136,14.899-0.904c9.745,3.248,14.149,11.027,11.219,19.818
						c-1.836,5.508-5.739,8.971-10.794,9.988c-2.562,0.199-5.362-0.18-8.3-1.188c-6.063-2.081-12.58-11.177-18.331-19.202
						c-0.092-0.129-0.224-0.311-0.39-0.537c-0.29-0.395-0.593-0.775-0.904-1.149C47.3,10.994,41.571,4.47,34.717,2.117
						C19.246-3.193,6.256,4.014,1.836,16.888c-4.42,12.875,1.405,26.541,16.876,31.852c9.174,3.148,21.66-0.727,32.993-4.073
						c0.739-0.192,1.198-0.352,1.198-0.352s-6.731-7.233-12.234-14.486C35.166,22.575,23.93,16.711,16.246,24
						c0,0,6.44-3.206,13.181,5.619c1.911,2.503,4.554,6.283,7.241,9.465c-5.805,1.355-11.219,2.036-14.906,0.771
						c-9.716-3.335-14.05-11.153-11.042-19.917c3.009-8.764,11.231-12.271,20.947-8.937c0.368,0.126,0.737,0.279,1.108,0.456
						c-0.11-0.088-0.018-0.082,0.208-0.014c-0.136,0.007-0.208,0.014-0.208,0.014c10.392,8.322,20.072,31.922,34.632,36.774
						c15.518,5.172,28.443-2.151,32.747-15.065C104.458,20.253,98.511,6.64,82.993,1.468z M79.112,40.393
						c-0.097,0.012-0.193,0.021-0.291,0.031C78.919,40.414,79.016,40.404,79.112,40.393z M79.815,40.299
						c-0.092,0.015-0.186,0.027-0.279,0.04C79.629,40.326,79.723,40.313,79.815,40.299z M69.915,39.152
						c0.154,0.06,0.309,0.117,0.462,0.168C70.223,39.27,70.069,39.213,69.915,39.152z M72.273,39.87
						c-0.08-0.02-0.161-0.041-0.241-0.062C72.113,39.829,72.193,39.851,72.273,39.87z M71.436,39.646
						c-0.081-0.023-0.161-0.047-0.242-0.07C71.275,39.6,71.355,39.623,71.436,39.646z M73.065,40.053
						c0.021,0.005,0.042,0.008,0.063,0.013C73.107,40.061,73.086,40.058,73.065,40.053z M73.85,40.203
						c0.086,0.014,0.172,0.027,0.258,0.041C74.022,40.23,73.936,40.217,73.85,40.203z M74.652,40.324
						c0.085,0.012,0.17,0.023,0.255,0.034C74.823,40.348,74.737,40.336,74.652,40.324z M75.648,40.436
						c0.048,0.004,0.096,0.006,0.144,0.01C75.744,40.441,75.696,40.439,75.648,40.436z M76.396,40.482
						c0.093,0.004,0.186,0.006,0.279,0.009C76.583,40.488,76.49,40.486,76.396,40.482z M77.156,40.498
						c0.091,0.001,0.183,0.002,0.273,0C77.338,40.5,77.247,40.499,77.156,40.498z M78.319,40.463
						c-0.073,0.005-0.145,0.012-0.218,0.016C78.174,40.475,78.246,40.468,78.319,40.463z"/>
				</defs>
				<clipPath id="SVGID_2_">
					<use xlink:href="#SVGID_1_"  overflow="visible"/>
				</clipPath>
				<g clip-path="url(#SVGID_2_)">
					<linearGradient id="SVGID_3_" gradientUnits="userSpaceOnUse" x1="8.9199" y1="6.041" x2="61.7472" y2="58.8682">
						<stop  offset="0" style="stop-color:#00BAC7"/>
						<stop  offset="0.9951" style="stop-color:#035E83"/>
						<a:midPointStop  offset="0" style="stop-color:#00BAC7"/>
						<a:midPointStop  offset="0.5" style="stop-color:#00BAC7"/>
						<a:midPointStop  offset="0.9951" style="stop-color:#035E83"/>
					</linearGradient>
					<path fill="url(#SVGID_3_)" d="M16.246,23.981c0,0,6.44-3.206,13.181,5.62c1.911,2.503,4.554,6.282,7.241,9.465
						c-5.805,1.354-11.219,2.036-14.906,0.771c-9.716-3.334-14.05-11.152-11.042-19.917c3.009-8.764,11.231-12.271,20.947-8.937
						c0.368,0.126,0.737,0.279,1.108,0.456c-0.683-0.547,6.385,2.508,5.693,2.103c0,0,12.606,7.454,12.699,7.583
						c5.823,7.973,13.128,16.151,19.209,18.178c3.638,1.213,7.059,1.473,10.071,0.866c-2.562,0.199-5.362-0.18-8.3-1.188
						c-6.063-2.08-12.58-11.176-18.331-19.201c-0.092-0.129-0.224-0.311-0.39-0.537c-0.29-0.395-0.593-0.775-0.904-1.149
						C47.3,10.975,41.571,4.452,34.717,2.098C19.246-3.212,6.256,3.995,1.836,16.87c-4.42,12.875,1.405,26.541,16.876,31.851
						c9.174,3.148,21.66-0.726,32.993-4.072c0.739-0.193,1.198-0.352,1.198-0.352s-6.731-7.234-12.234-14.486
						C35.166,22.556,23.93,16.692,16.246,23.981z"/>
				</g>
				<linearGradient id="SVGID_4_" gradientUnits="userSpaceOnUse" x1="21.2832" y1="46.5049" x2="54.0345" y2="13.7535">
					<stop  offset="0" style="stop-color:#FFFFFF;stop-opacity:0"/>
					<stop  offset="1" style="stop-color:#FFFFFF"/>
					<a:midPointStop  offset="0" style="stop-color:#FFFFFF;stop-opacity:0"/>
					<a:midPointStop  offset="0.5" style="stop-color:#FFFFFF;stop-opacity:0"/>
					<a:midPointStop  offset="1" style="stop-color:#FFFFFF"/>
				</linearGradient>
				<path opacity="0.27" clip-path="url(#SVGID_2_)" fill="url(#SVGID_4_)" d="M72.148,38.979
					c-6.063-2.08-12.58-11.176-18.331-19.201c-0.092-0.129-0.224-0.311-0.39-0.537c-0.29-0.395-0.593-0.775-0.904-1.149
					C47.3,10.975,41.571,4.452,34.717,2.098C19.246-3.212,6.256,3.995,1.836,16.87c-1,2.914-1.474,5.868-1.432,8.757
					C8.297,13.149,17.128,10.023,23.57,9.78c1.832-0.12,3.784,0.056,5.818,0.542c0.147,0.034,0.29,0.068,0.428,0.103
					c0.026,0.007,0.053,0.013,0.079,0.02c0.671,0.171,1.24,0.352,1.69,0.51c0.027,0.009,0.054,0.017,0.081,0.026
					c0.223,0.077,0.447,0.166,0.671,0.262c0.285,0.118,0.437,0.194,0.437,0.194c-0.683-0.547,6.385,2.508,5.693,2.103
					c0,0,12.606,7.454,12.699,7.583c5.823,7.973,13.128,16.151,19.209,18.178c3.638,1.213,7.059,1.473,10.071,0.866
					C77.886,40.366,75.086,39.987,72.148,38.979z"/>
				<linearGradient id="SVGID_5_" gradientUnits="userSpaceOnUse" x1="21.2832" y1="46.5049" x2="54.0345" y2="13.7535">
					<stop  offset="0" style="stop-color:#FFFFFF;stop-opacity:0"/>
					<stop  offset="0.8529" style="stop-color:#FFFFFF;stop-opacity:0.8529"/>
					<stop  offset="1" style="stop-color:#FFFFFF"/>
					<a:midPointStop  offset="0" style="stop-color:#FFFFFF;stop-opacity:0"/>
					<a:midPointStop  offset="0.8416" style="stop-color:#FFFFFF;stop-opacity:0"/>
					<a:midPointStop  offset="1" style="stop-color:#FFFFFF"/>
				</linearGradient>
				<path opacity="0.27" clip-path="url(#SVGID_2_)" fill="url(#SVGID_5_)" d="M72.148,38.979
					c-6.063-2.08-12.58-11.176-18.331-19.201c-0.092-0.129-0.224-0.311-0.39-0.537c-0.29-0.395-0.593-0.775-0.904-1.149
					C47.3,10.975,41.571,4.452,34.717,2.098C19.246-3.212,6.256,3.995,1.836,16.87c-1,2.914-1.474,5.868-1.432,8.757
					C8.297,13.149,17.128,10.023,23.57,9.78c1.832-0.12,3.784,0.056,5.818,0.542c0.147,0.034,0.29,0.068,0.428,0.103
					c0.026,0.007,0.053,0.013,0.079,0.02c0.671,0.171,1.24,0.352,1.69,0.51c0.027,0.009,0.054,0.017,0.081,0.026
					c0.223,0.077,0.447,0.166,0.671,0.262c0.285,0.118,0.437,0.194,0.437,0.194c-0.683-0.547,6.385,2.508,5.693,2.103
					c0,0,12.606,7.454,12.699,7.583c5.823,7.973,13.128,16.151,19.209,18.178c3.638,1.213,7.059,1.473,10.071,0.866
					C77.886,40.366,75.086,39.987,72.148,38.979z"/>
				<linearGradient id="SVGID_6_" gradientUnits="userSpaceOnUse" x1="53.21" y1="37.4922" x2="88.4636" y2="2.2386">
					<stop  offset="0" style="stop-color:#EDB923"/>
					<stop  offset="1" style="stop-color:#E94C27"/>
					<a:midPointStop  offset="0" style="stop-color:#EDB923"/>
					<a:midPointStop  offset="0.5" style="stop-color:#EDB923"/>
					<a:midPointStop  offset="1" style="stop-color:#E94C27"/>
				</linearGradient>
				<path clip-path="url(#SVGID_2_)" fill="url(#SVGID_6_)" d="M82.993,1.449c-9.202-3.067-21.652,0.919-32.955,4.368
					c-0.737,0.199-1.195,0.362-1.195,0.362s6.796,7.172,12.364,14.376c5.568,7.205,16.855,12.967,24.475,5.611
					c0,0-6.412,3.263-13.231-5.502c-1.933-2.485-4.61-6.242-7.326-9.4c5.793-1.407,11.201-2.136,14.899-0.904
					c9.745,3.248,14.149,11.027,11.219,19.818s-11.121,12.371-20.866,9.123c-4.744-1.58-9.803-7.429-14.563-13.709
					c-0.398-0.494-0.949-1.228-1.675-2.241c0,0-0.001-0.001-0.001-0.001c-0.179-0.242-0.357-0.483-0.535-0.725
					c-9.275-12.29-20.827-11.186-20.827-11.186l0,0c10.392,8.322,20.072,31.921,34.632,36.775
					c15.518,5.172,28.443-2.151,32.747-15.064C104.458,20.234,98.511,6.621,82.993,1.449z"/>
				<linearGradient id="SVGID_7_" gradientUnits="userSpaceOnUse" x1="32.7749" y1="26.3354" x2="80.4482" y2="26.3354">
					<stop  offset="0" style="stop-color:#000000"/>
					<stop  offset="1" style="stop-color:#000000;stop-opacity:0"/>
					<a:midPointStop  offset="0" style="stop-color:#000000"/>
					<a:midPointStop  offset="0.5" style="stop-color:#000000"/>
					<a:midPointStop  offset="1" style="stop-color:#000000;stop-opacity:0"/>
				</linearGradient>
				<path clip-path="url(#SVGID_2_)" fill="url(#SVGID_7_)"  a:adobe-blending-mode="softLight" d="M46.34,28.098L46.34,28.098
					c0,0,19.332,17.654,34.108,12.069l0,0c-3.012,0.606-6.433,0.347-10.071-0.866c-4.744-1.58-9.803-7.429-14.563-13.709
					c-0.398-0.494-0.949-1.228-1.675-2.241c0,0-0.001-0.001-0.001-0.001c-0.179-0.242-0.357-0.483-0.535-0.725
					c-9.275-12.29-20.827-11.186-20.827-11.186C37.278,15.044,41.649,21.521,46.34,28.098z"/>
				<linearGradient id="SVGID_8_" gradientUnits="userSpaceOnUse" x1="32.7749" y1="26.3354" x2="80.4482" y2="26.3354">
					<stop  offset="0" style="stop-color:#000000"/>
					<stop  offset="0.1413" style="stop-color:#000000;stop-opacity:0.8587"/>
					<stop  offset="1" style="stop-color:#000000;stop-opacity:0"/>
					<a:midPointStop  offset="0" style="stop-color:#000000"/>
					<a:midPointStop  offset="0.13" style="stop-color:#000000"/>
					<a:midPointStop  offset="1" style="stop-color:#000000;stop-opacity:0"/>
				</linearGradient>
				<path clip-path="url(#SVGID_2_)" fill="url(#SVGID_8_)"  a:adobe-blending-mode="softLight" d="M46.34,28.098L46.34,28.098
					c0,0,19.332,17.654,34.108,12.069l0,0c-3.012,0.606-6.433,0.347-10.071-0.866c-4.744-1.58-9.803-7.429-14.563-13.709
					c-0.398-0.494-0.949-1.228-1.675-2.241c0,0-0.001-0.001-0.001-0.001c-0.179-0.242-0.357-0.483-0.535-0.725
					c-9.275-12.29-20.827-11.186-20.827-11.186C37.278,15.044,41.649,21.521,46.34,28.098z"/>
				<g clip-path="url(#SVGID_2_)">
					<defs>
						<path id="SVGID_9_" d="M82.993,1.449c-9.202-3.067-21.652,0.919-32.955,4.368c-0.737,0.199-1.195,0.362-1.195,0.362
							s6.796,7.172,12.364,14.376c5.568,7.205,16.855,12.967,24.475,5.611c0,0-6.412,3.263-13.231-5.502
							c-1.933-2.485-4.61-6.242-7.326-9.4c5.793-1.407,11.201-2.136,14.899-0.904c9.745,3.248,14.149,11.027,11.219,19.818
							c-1.836,5.509-5.739,8.971-10.794,9.989c-2.562,0.199-5.362-0.18-8.3-1.188c-6.063-2.08-12.58-11.176-18.331-19.201
							c-0.092-0.129-0.224-0.311-0.39-0.537c-0.29-0.395-0.593-0.775-0.904-1.149C47.3,10.975,41.571,4.452,34.717,2.098
							C19.246-3.212,6.256,3.995,1.836,16.87c-4.42,12.875,1.405,26.541,16.876,31.851c9.174,3.148,21.66-0.726,32.993-4.072
							c0.739-0.193,1.198-0.352,1.198-0.352s-6.731-7.234-12.234-14.486c-5.503-7.255-16.739-13.118-24.423-5.83
							c0,0,6.44-3.206,13.181,5.62c1.911,2.503,4.554,6.282,7.241,9.465c-5.805,1.354-11.219,2.036-14.906,0.771
							c-9.716-3.334-14.05-11.152-11.042-19.917c3.009-8.764,11.231-12.271,20.947-8.937c0.368,0.126,0.737,0.279,1.108,0.456
							c-0.11-0.088-0.018-0.082,0.208-0.014c-0.136,0.007-0.208,0.014-0.208,0.014c10.392,8.322,20.072,31.921,34.632,36.775
							c15.518,5.172,28.443-2.151,32.747-15.064C104.458,20.234,98.511,6.621,82.993,1.449z M79.112,40.373
							c-0.097,0.012-0.193,0.022-0.291,0.031C78.919,40.396,79.016,40.385,79.112,40.373z M79.815,40.279
							c-0.092,0.016-0.186,0.027-0.279,0.041C79.629,40.307,79.723,40.295,79.815,40.279z M69.915,39.134
							c0.154,0.06,0.309,0.116,0.462,0.167C70.223,39.25,70.069,39.193,69.915,39.134z M72.273,39.852
							c-0.08-0.02-0.161-0.041-0.241-0.063C72.113,39.811,72.193,39.832,72.273,39.852z M71.436,39.627
							c-0.081-0.023-0.161-0.046-0.242-0.07C71.275,39.581,71.355,39.604,71.436,39.627z M73.065,40.034
							c0.021,0.005,0.042,0.008,0.063,0.013C73.107,40.042,73.086,40.039,73.065,40.034z M73.85,40.184
							c0.086,0.015,0.172,0.028,0.258,0.042C74.022,40.212,73.936,40.198,73.85,40.184z M74.652,40.306
							c0.085,0.011,0.17,0.023,0.255,0.034C74.823,40.329,74.737,40.317,74.652,40.306z M75.648,40.416
							c0.048,0.005,0.096,0.007,0.144,0.01C75.744,40.423,75.696,40.421,75.648,40.416z M76.396,40.463
							c0.093,0.004,0.186,0.006,0.279,0.01C76.583,40.469,76.49,40.467,76.396,40.463z M77.156,40.479
							c0.091,0.001,0.183,0.001,0.273,0C77.338,40.48,77.247,40.48,77.156,40.479z M78.319,40.443
							c-0.073,0.006-0.145,0.012-0.218,0.016C78.174,40.455,78.246,40.449,78.319,40.443z"/>
					</defs>
					<clipPath id="SVGID_10_">
						<use xlink:href="#SVGID_9_"  overflow="visible"/>
					</clipPath>
					<linearGradient id="SVGID_11_" gradientUnits="userSpaceOnUse" x1="70.1777" y1="23.9404" x2="76.8169" y2="17.3013">
						<stop  offset="0" style="stop-color:#000000"/>
						<stop  offset="1" style="stop-color:#000000;stop-opacity:0"/>
						<a:midPointStop  offset="0" style="stop-color:#000000"/>
						<a:midPointStop  offset="0.3267" style="stop-color:#000000"/>
						<a:midPointStop  offset="1" style="stop-color:#000000;stop-opacity:0"/>
					</linearGradient>
					<path clip-path="url(#SVGID_10_)" fill="url(#SVGID_11_)"  a:adobe-blending-mode="softLight" d="M65.125,11.264
						c0,0,3.862,24.321,20.557,14.902L65.125,11.264z"/>
					
						<linearGradient id="SVGID_12_" gradientUnits="userSpaceOnUse" x1="934.4761" y1="235.0034" x2="941.1154" y2="228.3642" gradientTransform="matrix(-1 0 0 -1 966.0322 261.1396)">
						<stop  offset="0" style="stop-color:#000000"/>
						<stop  offset="1" style="stop-color:#000000;stop-opacity:0"/>
						<a:midPointStop  offset="0" style="stop-color:#000000"/>
						<a:midPointStop  offset="0.3267" style="stop-color:#000000"/>
						<a:midPointStop  offset="1" style="stop-color:#000000;stop-opacity:0"/>
					</linearGradient>
					<path clip-path="url(#SVGID_10_)" fill="url(#SVGID_12_)"  a:adobe-blending-mode="softLight" d="M36.61,38.813
						c0,0-3.862-24.321-20.557-14.901L36.61,38.813z"/>
				</g>
				<linearGradient id="SVGID_13_" gradientUnits="userSpaceOnUse" x1="48.8433" y1="11.687" x2="104.7593" y2="11.687">
					<stop  offset="0" style="stop-color:#FFFFFF;stop-opacity:0"/>
					<stop  offset="0.8529" style="stop-color:#FFFFFF;stop-opacity:0.8529"/>
					<stop  offset="1" style="stop-color:#FFFFFF"/>
					<a:midPointStop  offset="0" style="stop-color:#FFFFFF;stop-opacity:0"/>
					<a:midPointStop  offset="0.8416" style="stop-color:#FFFFFF;stop-opacity:0"/>
					<a:midPointStop  offset="1" style="stop-color:#FFFFFF"/>
				</linearGradient>
				<path opacity="0.27" clip-path="url(#SVGID_2_)" fill="url(#SVGID_13_)" d="M48.843,6.179c0,0,46.771-12.333,52.412,22.337
					h3.504V-4.378C104.759-4.378,67.594-9.374,48.843,6.179z"/>
				
					<linearGradient id="SVGID_14_" gradientUnits="userSpaceOnUse" x1="762.6987" y1="97.8638" x2="818.6147" y2="97.8638" gradientTransform="matrix(-1 0 0 -1 815.5293 136.3467)">
					<stop  offset="0" style="stop-color:#FFFFFF;stop-opacity:0"/>
					<stop  offset="0.8529" style="stop-color:#FFFFFF;stop-opacity:0.8529"/>
					<stop  offset="1" style="stop-color:#FFFFFF"/>
					<a:midPointStop  offset="0" style="stop-color:#FFFFFF;stop-opacity:0"/>
					<a:midPointStop  offset="0.8416" style="stop-color:#FFFFFF;stop-opacity:0"/>
					<a:midPointStop  offset="1" style="stop-color:#FFFFFF"/>
				</linearGradient>
				<path opacity="0.53" clip-path="url(#SVGID_2_)" fill="url(#SVGID_14_)" d="M52.831,43.99c0,0-46.771,12.334-52.412-22.337
					h-3.504v32.896C-3.085,54.549,34.08,59.543,52.831,43.99z"/>
			</g>
		</g>
	</g>
	<g>
		<path fill="#FFFFFF" d="M130.826,34.017c0,2.9-0.542,5.292-1.625,7.175c-1.083,1.883-2.467,3.358-4.15,4.425
			c-1.684,1.066-3.692,1.982-6.025,2.75l-2.45-6.5c1.433-0.567,2.508-1.225,3.225-1.975c0.716-0.75,1.191-1.6,1.425-2.55
			c0.233-0.95,0.35-2.175,0.35-3.675v-29h9.25V34.017z"/>
		<path fill="#FFFFFF" d="M159.226,39.417h-7.75l-0.35-3.15c-1.867,2.7-4.517,4.05-7.95,4.05c-2.467,0-4.325-0.742-5.575-2.225
			c-1.25-1.482-1.875-3.541-1.875-6.175v-19.15h8.9v18c0,1.133,0.175,1.925,0.525,2.375c0.35,0.45,0.875,0.675,1.575,0.675
			c0.633,0,1.258-0.225,1.875-0.675c0.616-0.45,1.191-1.108,1.725-1.975v-18.4h8.9V39.417z"/>
		<path fill="#FFFFFF" d="M186.9,33.367c0.25,0.467,0.691,0.817,1.325,1.05l-1.8,5.75c-1.7-0.134-3.1-0.483-4.2-1.05
			s-1.983-1.467-2.65-2.7c-1.7,2.6-4.367,3.9-8,3.9c-2.634,0-4.742-0.775-6.325-2.325c-1.583-1.55-2.375-3.558-2.375-6.025
			c0-2.933,1.083-5.183,3.25-6.75c2.167-1.566,5.3-2.35,9.4-2.35h2.3v-0.9c0-1.433-0.3-2.408-0.9-2.925
			c-0.6-0.517-1.684-0.775-3.25-0.775c-0.833,0-1.875,0.125-3.125,0.375s-2.525,0.592-3.825,1.025l-1.95-5.75
			c1.6-0.667,3.316-1.175,5.15-1.525c1.833-0.35,3.533-0.525,5.1-0.525c4,0,6.916,0.792,8.75,2.375
			c1.833,1.583,2.75,4.008,2.75,7.275v9.7C186.525,32.184,186.65,32.9,186.9,33.367z M176.3,33.492
			c0.616-0.383,1.125-0.892,1.525-1.525v-4.35h-1.5c-1.6,0-2.784,0.292-3.55,0.875c-0.768,0.583-1.15,1.458-1.15,2.625
			c0,0.9,0.233,1.617,0.7,2.15c0.466,0.534,1.116,0.8,1.95,0.8C175.007,34.067,175.683,33.875,176.3,33.492z"/>
		<path fill="#FFFFFF" d="M213.774,13.967c1.3,1.4,1.95,3.367,1.95,5.9v19.55h-8.9v-17.95c0-1.166-0.167-1.975-0.5-2.425
			c-0.333-0.45-0.833-0.675-1.5-0.675c-1.4,0-2.733,1.017-4,3.05v18h-8.9v-26.65h7.75l0.65,3c1.2-1.333,2.45-2.316,3.75-2.95
			c1.3-0.633,2.75-0.95,4.35-0.95C210.69,11.867,212.474,12.567,213.774,13.967z"/>
		<path fill="#FFFFFF" d="M230.024,39.417h-9.25V4.667h9.25V39.417z M239.824,20.167l11.35,19.25h-10.6l-10.25-18.5l10.3-16.25h9.65
			L239.824,20.167z"/>
	</g>
</g>
<g>
</g>
<g>
</g>
<g>
</g>
<g>
</g>
<g>
</g>
<g>
</g>
</svg>
